<svg xmlns="http://www.w3.org/2000/svg" viewBox="0 0 48 48"><path fill="#374f68" d="M37.63,17C16.59,38.07,23,31.63,11,43.66L4.33,37C5.78,35.55,11.81,29.53,31,10.36Z"/><path fill="#425b72" d="M36.63,16c-19.7,19.72-16.36,16.38-20,20A8,8,0,0,1,5.33,36C17,24.35,11.06,30.29,31,10.36Z"/><rect width="6.71" height="9.42" x="32.61" y="7.31" fill="#374f68" transform="rotate(-45 35.96 12.025)"/><path fill="#dad7e5" d="M11,43.66,1,47,4.33,37Z"/><polygon fill="#edebf2" points="9.49 42.16 1.76 44.75 4.33 37 9.49 42.16"/><rect width="1.99" height="9.42" x="16.66" y="25.64" fill="#dad7e5" transform="rotate(-45 17.65 30.349)"/><path fill="#dad7e5" d="M17.65,18a1,1,0,0,1-.71-1.71L28.6,4.66A1,1,0,0,1,30,6.07C17.37,18.72,18.24,18,17.65,18Z"/><path fill="#374f68" d="M47,4.53c0,2-1.34,2.81-3.53,5l-5-5L41,2A3.54,3.54,0,0,1,47,4.53Z"/><path fill="#425b72" d="M46.84,3.52A3.35,3.35,0,0,1,46,5a3.54,3.54,0,0,1-5,0l-1.5-1.5L41,2A3.54,3.54,0,0,1,46.84,3.52Z"/><path fill="#374f68" d="M43.46,11.19,41,13.69,34.3,7l2.5-2.5a1.17,1.17,0,0,1,1.66,0l5,5A1.17,1.17,0,0,1,43.46,11.19Z"/><path fill="#425b72" d="M43.29,9.36a3.29,3.29,0,0,1-4.66,0L35.3,6l1.5-1.5a1.17,1.17,0,0,1,1.66,0Z"/><path fill="#dad7e5" d="M41.67,13l-4.75,4.75-10-10a1,1,0,0,1,0-1.42L28.6,4.66a3.42,3.42,0,0,1,4.74,0Z"/><path fill="#edebf2" d="M40.67,12a5.31,5.31,0,0,1-7.5,0L27.22,6,28.6,4.66a3.42,3.42,0,0,1,4.74,0Z"/><rect width="1.99" height="8" x="16.16" y="25.84" fill="#edebf2" transform="rotate(-45 17.152 29.845)"/></svg>